<svg  viewBox="0 0 960 960" fill="none" xmlns="http://www.w3.org/2000/svg">
<path d="M690.667 824.1C690.667 805.993 694.233 788.063 701.163 771.334C708.092 754.606 718.248 739.405 731.052 726.602C743.855 713.798 759.056 703.642 775.784 696.712C792.513 689.783 810.443 686.217 828.55 686.217V824.1H690.667Z" fill="#E50186"/>
<path d="M690.667 961.983C690.667 943.876 694.233 925.947 701.163 909.218C708.092 892.489 718.248 877.289 731.052 864.485C743.855 851.682 759.056 841.525 775.784 834.596C792.513 827.667 810.443 824.1 828.55 824.1V961.983H690.667Z" fill="#5000E4"/>
<path d="M828.55 686.217C828.55 704.324 832.117 722.254 839.046 738.982C845.975 755.711 856.132 770.911 868.935 783.715C881.739 796.519 896.939 806.675 913.668 813.604C930.397 820.534 948.326 824.1 966.434 824.1V686.217H828.55Z" fill="#FFCD00"/>
<path d="M828.55 824.1C828.55 842.207 832.117 860.137 839.046 876.866C845.975 893.594 856.132 908.795 868.935 921.598C881.739 934.402 896.939 944.558 913.668 951.488C930.397 958.417 948.326 961.983 966.434 961.983V824.1H828.55Z" fill="white"/>
<path d="M827.767 548.883C827.767 530.776 824.2 512.846 817.271 496.118C810.342 479.389 800.185 464.189 787.382 451.385C774.578 438.581 759.378 428.425 742.649 421.496C725.92 414.566 707.99 411 689.883 411V548.883H827.767Z" fill="#343434"/>
<path d="M827.767 548.883C827.767 530.776 831.333 512.846 838.262 496.118C845.192 479.389 855.348 464.189 868.152 451.385C880.955 438.581 896.156 428.425 912.884 421.496C929.613 414.566 947.543 411 965.65 411V548.883H827.767Z" fill="#5000E4"/>
<path d="M965.65 686.767C965.65 650.198 951.123 615.127 925.265 589.268C899.407 563.41 864.336 548.883 827.767 548.883C791.198 548.883 756.127 563.41 730.268 589.268C704.41 615.127 689.883 650.198 689.883 686.767L827.767 686.767H965.65Z" fill="#343434"/>
<path d="M414.667 548.883C414.667 530.776 418.233 512.847 425.162 496.118C432.092 479.389 442.248 464.189 455.052 451.385C467.855 438.582 483.056 428.425 499.784 421.496C516.513 414.567 534.443 411 552.55 411V548.883H414.667Z" fill="#5000E4"/>
<path d="M552.55 548.883C552.55 530.776 556.116 512.847 563.046 496.118C569.975 479.389 580.131 464.189 592.935 451.385C605.739 438.582 620.939 428.425 637.668 421.496C654.396 414.567 672.326 411 690.433 411V548.883H552.55Z" fill="#E50186"/>
<path d="M414.667 686.767C414.667 650.198 429.194 615.127 455.052 589.269C480.91 563.41 515.981 548.883 552.55 548.883C589.119 548.883 624.19 563.41 650.048 589.269C675.906 615.127 690.433 650.198 690.433 686.767L552.55 686.767H414.667Z" fill="#FFCD00"/>
<path d="M827.767 272.1C827.767 290.207 831.333 308.137 838.262 324.866C845.192 341.594 855.348 356.795 868.152 369.598C880.955 382.402 896.156 392.558 912.884 399.488C929.613 406.417 947.543 409.983 965.65 409.983V272.1H827.767Z" fill="#FFCD00"/>
<path d="M689.883 409.983C689.883 391.876 693.45 373.946 700.379 357.218C707.308 340.489 717.465 325.289 730.268 312.485C743.072 299.681 758.272 289.525 775.001 282.596C791.73 275.666 809.66 272.1 827.767 272.1V409.983H689.883Z" fill="#5000E4"/>
<path d="M827.767 272.1C827.767 253.993 824.2 236.063 817.271 219.334C810.342 202.606 800.185 187.405 787.382 174.602C774.578 161.798 759.378 151.642 742.649 144.712C725.92 137.783 707.99 134.217 689.883 134.217V272.1H827.767Z" fill="white"/>
<path d="M965.65 134.217C965.65 152.324 962.084 170.254 955.154 186.982C948.225 203.711 938.069 218.911 925.265 231.715C912.461 244.519 897.261 254.675 880.532 261.604C863.804 268.534 845.874 272.1 827.767 272.1V134.217H965.65Z" fill="#E50186"/>
<path d="M689.65 272.1C689.65 253.993 686.084 236.063 679.154 219.334C672.225 202.606 662.069 187.405 649.265 174.602C636.461 161.798 621.261 151.642 604.532 144.712C587.804 137.783 569.874 134.217 551.767 134.217V272.1H689.65Z" fill="#FFCD00"/>
<path d="M689.65 409.983C689.65 391.876 686.084 373.947 679.154 357.218C672.225 340.489 662.069 325.289 649.265 312.485C636.461 299.682 621.261 289.525 604.532 282.596C587.804 275.667 569.874 272.1 551.767 272.1V409.983H689.65Z" fill="#E50186"/>
<path d="M551.767 134.217C551.767 152.324 548.2 170.254 541.271 186.982C534.342 203.711 524.185 218.911 511.382 231.715C498.578 244.519 483.378 254.675 466.649 261.604C449.92 268.534 431.99 272.1 413.883 272.1V134.217H551.767Z" fill="white"/>
<path d="M413.883 272.1C413.883 290.207 417.45 308.137 424.379 324.866C431.308 341.594 441.465 356.795 454.269 369.598C467.072 382.402 482.272 392.558 499.001 399.488C515.73 406.417 533.66 409.983 551.767 409.983V272.1H413.883Z" fill="#5000E4"/>
<path d="M551.217 961.433C533.11 961.433 515.18 957.867 498.451 950.938C481.722 944.008 466.522 933.852 453.718 921.048C440.915 908.245 430.758 893.045 423.829 876.316C416.9 859.587 413.333 841.657 413.333 823.55C413.333 805.443 416.9 787.513 423.829 770.784C430.758 754.056 440.915 738.855 453.718 726.052C466.522 713.248 481.722 703.092 498.451 696.162C515.18 689.233 533.11 685.667 551.217 685.667L551.217 823.55V961.433Z" fill="#E50186"/>
<path d="M551.217 823.55C551.217 805.443 554.783 787.513 561.712 770.784C568.642 754.056 578.798 738.855 591.602 726.052C604.405 713.248 619.606 703.092 636.334 696.162C653.063 689.233 670.993 685.667 689.1 685.667V823.55H551.217Z" fill="white"/>
<path d="M551.217 961.433C551.217 943.326 554.783 925.397 561.712 908.668C568.642 891.939 578.798 876.739 591.602 863.935C604.405 851.131 619.606 840.975 636.334 834.046C653.063 827.117 670.993 823.55 689.1 823.55V961.433H551.217Z" fill="#FFCD00"/>
<path d="M275.767 132.883C275.767 150.99 279.333 168.92 286.262 185.649C293.192 202.378 303.348 217.578 316.152 230.382C328.955 243.185 344.156 253.342 360.884 260.271C377.613 267.2 395.543 270.767 413.65 270.767V132.883H275.767Z" fill="#5000E4"/>
<path d="M275.767 408.65C275.767 390.543 279.333 372.613 286.262 355.884C293.192 339.156 303.348 323.955 316.152 311.152C328.955 298.348 344.156 288.192 360.884 281.262C377.613 274.333 395.543 270.767 413.65 270.767V408.65H275.767Z" fill="#FFCD00"/>
<path d="M275.767 132.883C275.767 150.99 272.2 168.92 265.271 185.649C258.342 202.378 248.185 217.578 235.382 230.382C222.578 243.185 207.378 253.342 190.649 260.271C173.92 267.2 155.99 270.767 137.883 270.767V132.883H275.767Z" fill="#343434"/>
<path d="M275.767 408.65C275.767 390.543 272.2 372.613 265.271 355.884C258.342 339.156 248.185 323.955 235.382 311.152C222.578 298.348 207.378 288.192 190.649 281.262C173.92 274.333 155.99 270.767 137.883 270.767V408.65H275.767Z" fill="#E50186"/>
<path d="M138.667 132.65C138.667 114.543 142.233 96.6131 149.163 79.8843C156.092 63.1555 166.248 47.9554 179.052 35.1517C191.855 22.348 207.056 12.1916 223.784 5.26235C240.513 -1.66694 258.443 -5.2334 276.55 -5.2334V132.65H138.667Z" fill="#FFCD00"/>
<path d="M414.433 -5.23322C414.433 12.8739 410.867 30.8037 403.938 47.5325C397.008 64.2612 386.852 79.4614 374.048 92.265C361.245 105.069 346.045 115.225 329.316 122.154C312.587 129.084 294.657 132.65 276.55 132.65V-5.23322H414.433Z" fill="#343434"/>
<path d="M689.333 135.317C689.333 98.7478 703.86 63.6766 729.718 37.8185C755.577 11.9603 790.648 -2.56665 827.217 -2.56665C863.786 -2.56665 898.857 11.9603 924.715 37.8184C950.573 63.6766 965.1 98.7477 965.1 135.317L827.217 135.317H689.333Z" fill="#343434"/>
<path d="M552.55 134.767C552.55 116.66 556.117 98.7299 563.046 82.0012C569.975 65.2724 580.132 50.0722 592.935 37.2686C605.739 24.4649 620.939 14.3085 637.668 7.37923C654.397 0.449941 672.326 -3.11652 690.433 -3.11652V134.767H552.55Z" fill="#E50186"/>
<path d="M414.667 134.767C414.667 116.66 418.233 98.7299 425.162 82.0012C432.092 65.2724 442.248 50.0722 455.052 37.2686C467.855 24.4649 483.056 14.3085 499.784 7.37923C516.513 0.449941 534.443 -3.11652 552.55 -3.11652V134.767H414.667Z" fill="#FFCD00"/>
<path d="M277.333 408.883C277.333 426.991 280.9 444.92 287.829 461.649C294.758 478.378 304.915 493.578 317.718 506.382C330.522 519.185 345.722 529.342 362.451 536.271C379.18 543.2 397.11 546.767 415.217 546.767V408.883H277.333Z" fill="#5000E4"/>
<path d="M1.33337 -5.7832C1.33337 12.3239 4.89984 30.2537 11.8291 46.9825C18.7584 63.7113 28.9148 78.9114 41.7185 91.7151C54.5221 104.519 69.7223 114.675 86.4511 121.604C103.18 128.534 121.11 132.1 139.217 132.1V-5.7832H1.33337Z" fill="#5000E4"/>
</svg>
